<svg viewBox="0 0 1000 1000" xmlns="http://www.w3.org/2000/svg"><g fill="#3f5d45"><path d="m450 900a450.119 450.119 0 0 1 -175.163-864.638 450.119 450.119 0 0 1 350.326 829.276 447.2 447.2 0 0 1 -175.163 35.362zm-245.79-202.635c15.541 0 28.931 5.05 44.435 10.9 22.611 8.528 50.75 19.14 98.53 19.14 82.944 0 134.741-27.753 163.586-51.036 37.213-30.036 58.556-71.284 58.556-113.169 0-53.444-23-84.787-60.12-118.035l-65.25-58.657c-28.189-25.376-55.71-54.035-55.71-100.44 0-53.1 46.123-90.18 112.163-90.18 26.2 0 53.98 8.5 74.323 22.73 17.6 12.315 38.582 35.032 38.582 73.322a143.39 143.39 0 0 1 -6.04 41.253l-.552 1.992h8.8l50.58-140.017-11-2.205c-5 11.433-11.422 19.057-26.393 19.057-13.8 0-27.373-4.629-43.092-9.99-21.429-7.308-48.1-16.4-85.2-16.4-50.906 0-98.583 14.614-134.249 41.15-35.872 26.689-55.628 62.584-55.628 101.073 0 56.234 29.017 94.017 72.585 133.447l52.043 47.633c30.832 28.479 43.988 55.671 43.988 90.922 0 34.713-12.325 64.023-35.643 84.761-23.93 21.282-58.505 32.532-99.987 32.532-28.8 0-59.835-9.556-83.028-25.563-19.316-13.331-42.342-37.267-42.342-75.6 0-15.988 4.357-28.448 9.4-42.875l.137-.392h-9.54l-52.044 145.882 10.26 2.205c2.319-13.133 14.568-23.44 27.85-23.44zm460.39-252.45-.018.047c-4.3 10.947-5.652 12.7-18.625 29.508l-2.664 3.452c-1.141 1.547-2.359 3.116-3.6 4.713-6.341 8.168-13.524 17.42-13.524 28.272 0 13.5 11.045 19.642 21.307 19.642 13.311 0 22.972-9.661 22.972-22.972 0-3.662-.643-8-2.2-18.487l-.727-4.914c-3.228-24.11-2.955-26.152-1.441-37.48l.181-1.355c10.484 13.7 15.582 27.641 19.679 38.844 6.126 16.73 10.545 28.815 27.94 28.815 11.985 0 21.735-10.487 21.735-23.378 0-9.532-6.465-16.845-19.215-21.735-9.3-3.519-33.994-12.866-48.87-23.805a121.386 121.386 0 0 1 13.845-.769c9.453 0 18.832.982 30.008 2.456 1.595.212 3.191.451 4.781.689a94.952 94.952 0 0 0 13.6 1.382c14.2 0 23.378-8.523 23.378-21.713 0-12.238-10.146-22.972-21.713-22.972-10.5 0-20.414 8.721-30.915 17.955-9.774 8.616-21.387 17.89-33.414 21.307 4.565-11.578 5.347-12.81 20.9-32.985 1.135-1.539 2.346-3.1 3.579-4.687 6.359-8.191 13.544-17.447 13.544-28.32 0-13.48-11.045-19.62-21.307-19.62-13.311 0-22.972 9.661-22.972 22.973 0 3.641.643 7.977 2.2 18.452l.729 4.925c3.286 24.735 3.349 26.187 1.665 38.835-10.429-13.619-15.6-27.5-19.759-38.654-6.275-16.838-10.808-29-28.279-29-11.972 0-21.712 10.5-21.712 23.4 0 9.538 6.465 16.843 19.215 21.712 15.858 6.013 35.745 14.154 48.87 23.805a122.247 122.247 0 0 1 -13.938.774c-9.481 0-18.816-.975-29.914-2.439-1.659-.22-3.317-.47-4.966-.719a91.42 91.42 0 0 0 -13.416-1.374c-14.2 0-23.378 8.523-23.378 21.712 0 12.238 10.146 22.972 21.713 22.972 10.473 0 20.392-8.721 30.893-17.955 8.4-7.382 21.032-17.62 33.791-21.293z" transform="translate(50 50)"/><path d="m499.994 1000a500.132 500.132 0 0 1 -194.621-960.708 500.129 500.129 0 0 1 389.245 921.415 496.866 496.866 0 0 1 -194.624 39.293zm0-987.5a487.631 487.631 0 0 0 -189.754 936.691 487.628 487.628 0 0 0 379.515-898.382 484.466 484.466 0 0 0 -189.761-38.309z" transform=""/></g></svg>