<svg viewBox="0 0 59.28 218.689" xmlns="http://www.w3.org/2000/svg"><g fill="#3f5d45" transform="translate(.006 -.001)"><path d="m59.175 10.226a5 5 0 0 0 -2.3 2.448c-.168.336-.288.408-.5.408a1.1 1.1 0 0 1 -.528-.145 14.244 14.244 0 0 1 -4.347-3.553 19.679 19.679 0 0 1 -3.7-7.2 24.071 24.071 0 0 1 -11.519 11.257c-.144.048-.264-.191-.144-.264 2.592-1.752 5.856-6.145 7.921-11.089a9.938 9.938 0 0 0 .667-2.088c3.84.769 4.2 1.057 4.2 1.393 0 .264-.24.432-.84.624a17.524 17.524 0 0 0 5.593 5.4 22.3 22.3 0 0 0 5.5 2.568c.141.048.117.168-.003.241zm-9.7 3.24c1.176-1.513 1.368-1.633 1.608-1.633.288 0 .48.12 1.8 1.272.816.7.888.84.888 1.057 0 .287-.1.432-1.032.863a58 58 0 0 1 -2.469 7.175 1.079 1.079 0 0 1 -.96.528c-1.1 0-2.208-.336-2.208-.84a1.97 1.97 0 0 1 .24-.816 63.113 63.113 0 0 0 2.64-7.129h-6.96a21.823 21.823 0 0 0 -2.88.168l-.216-.815a26.7 26.7 0 0 0 3.1.168zm-4.128-3.072a18.339 18.339 0 0 0 -2.448.168l-.24-.84a21.214 21.214 0 0 0 2.688.191h2.136c1.44-1.824 1.56-1.9 1.7-1.9.192 0 .288.071 1.512 1.2.72.673.768.744.768.912s-.072.265-.24.265z"/><path d="m48.83 38.017a12.286 12.286 0 0 0 4.2 6.577 17.653 17.653 0 0 0 6.07 3.552c.144.049.12.192-.024.217-1.056.216-1.68.792-2.616 2.256-.288.432-.408.456-.648.456a1.941 1.941 0 0 1 -.84-.36 13.076 13.076 0 0 1 -4.944-5.3 16.593 16.593 0 0 1 -1.536-6.937 14.434 14.434 0 0 1 -2.184 6.745 15.091 15.091 0 0 1 -9.985 6.288c-.144.024-.288-.191-.144-.239a13.665 13.665 0 0 0 7.154-6.272 16.459 16.459 0 0 0 1.944-6.985h-4.152c-.84 0-1.776.049-3.145.168l-.24-.815c1.584.12 2.544.168 3.384.168h4.2c.072-.984.1-2.088.1-3.36 0-.912-.024-1.632-.048-2.232h-5.211c-.84 0-1.776.048-3.145.168l-.24-.815c1.584.119 2.544.168 3.384.168h13.466c1.848-2.137 1.992-2.3 2.232-2.3.288 0 .408.072 1.776 1.3 1.008.912 1.08 1.032 1.08 1.225 0 .168-.12.264-.312.264h-9.048c-.024.288-.144.48-.624.792 0 1.872-.048 3.433-.168 4.8h4.176c1.8-2.185 1.9-2.256 2.136-2.256.288 0 .456.119 1.656 1.224.888.816 1.1 1.056 1.1 1.248 0 .168-.12.264-.312.264z"/><path d="m49.358 76.586c.816.023 1.776.048 2.88.048a43.353 43.353 0 0 0 6.745-.384c.144-.024.168.191.048.264a3.6 3.6 0 0 0 -1.873 2.686.707.707 0 0 1 -.672.624 32.87 32.87 0 0 1 -3.769.072c-3.7 0-6.024-.553-7.584-1.561a5.8 5.8 0 0 1 -2.688-3.744 16.815 16.815 0 0 1 -6.336 5.328c-.144.048-.264-.12-.144-.216 1.608-1.2 3.792-4.681 4.9-8.665.144-.552.24-.936.36-1.512 3.528 1.2 3.7 1.32 3.7 1.656 0 .312-.1.407-.912.647a11.09 11.09 0 0 1 -1.3 2.376 3.9 3.9 0 0 0 2.112 1.681 8.411 8.411 0 0 0 1.464.408v-5.013c0-.888 0-1.632-.072-2.473h-6.46a21.387 21.387 0 0 0 -2.736.168l-.24-.815c1.248.12 2.208.168 2.976.168h14.329c1.656-2.112 1.7-2.137 1.944-2.137s.312 0 1.632 1.272c.864.816.937.864.937 1.1a.234.234 0 0 1 -.264.239h-8.449c-.024.168-.144.288-.528.48v3.417h2.9c1.584-1.992 1.632-2.016 1.848-2.016.264 0 .312.023 1.584 1.224.816.769.864.816.864 1.032a.215.215 0 0 1 -.24.24h-6.956zm-5.449-10.033c0 .7-.6 1.008-1.968 1.008-.84 0-1.056-.168-1.056-.768 0-.433.072-2.353.072-5.209 0-1.2 0-2.687-.072-3.672 2.64.528 3.289.792 3.457 1.008h6.358c1.128-1.3 1.2-1.344 1.464-1.344.24 0 .36.023 1.584.936 1.032.769 1.08.864 1.08 1.08 0 .192-.048.24-.624.721v2.16c0 2.088.12 3.1.12 3.528 0 .7-.72 1.08-2.136 1.08-.96 0-1.128-.145-1.128-.84v-.456h-7.151zm.384-7.152a2.43 2.43 0 0 1 -.384.264v2.4h7.152v-2.665zm6.769 5.9v-2.76h-7.153v2.759z"/><path d="m38.749 95.834a18.262 18.262 0 0 1 -2.64 2.928c-.12.1-.288-.072-.216-.191 1.176-1.776 2.616-5.521 3.96-10.346.144-.552.288-1.128.408-1.728 3.168 1.176 3.552 1.488 3.552 1.8 0 .336-.216.576-1.08.816a28.488 28.488 0 0 1 -2.112 3.987c1.272.527 1.536.744 1.536 1.008 0 .216-.144.384-.744.624v5.377c0 5.784.048 7.272.048 7.872 0 .672-.744 1.032-1.872 1.032-.912 0-1.056-.192-1.056-.816s.1-2.256.144-5.856zm15.77-7.513c1.176-1.368 1.224-1.393 1.488-1.393.24 0 .336 0 1.392.937.864.768.936.888.936 1.08 0 .216-.072.312-.624.792v4.32c0 9.192.144 12.841.144 13.465 0 .721-.72 1.2-2.064 1.2-.72 0-.912-.168-.912-.888v-.934h-8.257v.792c0 .7-.528 1.152-1.776 1.152-.816 0-.984-.12-.984-.888 0-.648.168-4.44.168-14.258 0-3.624-.024-5.185-.12-6.48 2.328.528 3.072.84 3.264 1.1zm.36 18.1v-17.621h-7.753a1.527 1.527 0 0 1 -.5.313v17.306zm-2.779-13.25c.912-1.367.984-1.416 1.128-1.416s.216.024.888.816c.528.624.576.744.576.864 0 .144-.1.216-.264.216h-2.76v3.792c.648-.912.744-1.008.936-1.008.168 0 .216 0 .937.672.7.648.72.721.72.889s-.048.216-.408.552v.96c0 2.473.1 3.96.1 4.393 0 .672-.432.96-1.584.96-.6 0-.72-.168-.72-.792v-.648h-1.859v.7c0 .624-.432.912-1.536.912-.5 0-.648-.144-.648-.672 0-.48.12-1.992.12-4.44 0-1.008 0-1.992-.072-3.265.864.24 1.44.433 1.824.576v-3.583h-.072c-.432 0-1.2.048-2.328.168l-.24-.817a19.182 19.182 0 0 0 2.568.168h.072a35.444 35.444 0 0 0 -.12-3.84c2.688.24 2.809.432 2.809.672 0 .192-.048.313-.5.552v2.616zm-.456 9.77v-4.995h-1.494a.98.98 0 0 1 -.36.312v4.681z"/><path d="m45.278 138.53v-24h.768v24z"/><path d="m45.278 162.53v-24h.768v24z"/><path d="m8.149 18.7c0 3.937.144 5.688.144 6.313 0 .744-.48 1.176-1.992 1.176-.624 0-.816-.24-.816-.936v-.528h-1.824v2.04c0 .72-.648 1.032-1.944 1.032-.5 0-.72-.12-.72-.888 0-.673.1-4.465.1-7.921 0-2.761 0-4.1-.1-5.5 2.28.576 2.976.912 3.192 1.2h1.032c.96-1.248 1.056-1.319 1.272-1.319.24 0 .312 0 1.368.863.912.744.984.864.984 1.08 0 .24-.048.313-.7.864zm-2.664 5.541v-9.072h-1.3a2 2 0 0 1 -.528.336v8.736zm12.841-7.584c1.776-2.328 1.872-2.4 2.112-2.4s.384.048 1.7 1.392c.816.816.936.961.936 1.177s-.1.312-.408.312h-10.58a25.012 25.012 0 0 1 -3.48 4.249c-.1.1-.312-.024-.24-.145a31.437 31.437 0 0 0 2.64-8.232 16 16 0 0 0 .264-1.872c3.84.888 4.056 1.128 4.056 1.416 0 .384-.168.5-1.08.792a25.8 25.8 0 0 1 -1.846 3.311zm-3.336 4.2c1.368-1.513 1.464-1.561 1.7-1.561.264 0 .408.072 1.368.889 1.08.936 1.2 1.1 1.2 1.32 0 .312-.024.407-1.776 1.3-4.344 4.992-5.088 6.024-5.088 6.553s.1.743 3.6.743c2.544 0 3.5-.287 4.056-.84a10.01 10.01 0 0 0 1.9-3.672c.048-.145.192-.1.192.048-.119 1.963-.142 2.637-.142 2.949a1.9 1.9 0 0 0 .384 1.056 2.185 2.185 0 0 1 .384 1.272c0 1.128-.72 1.92-7.225 1.92-5.521 0-6.193-.936-6.193-2.472 0-1.272.072-1.681 5.688-9.025h-2.784a16.488 16.488 0 0 0 -2.349.168l-.243-.815a19.668 19.668 0 0 0 2.592.168z"/><path d="m20.366 47.137c1.008-1.872 1.152-2.016 1.3-2.016s.24.048.888.912c.72.983.768 1.056.768 1.271s-.12.313-.408.313h-2.548v2.16c0 7.776.12 10.009.12 11.185 0 .7-.48 1.152-1.872 1.152-.936 0-1.152-.145-1.152-.937v-1.415h-2.662v1.345c0 .815-.744 1.1-1.872 1.1-.96 0-1.1-.24-1.1-.864 0-.672.216-3.672.216-11.4v-2.326h-1.135c.336.384.384.5.384.672 0 .216-.12.288-.48.288h-3.768v4.776h.144c1.128-1.393 1.2-1.464 1.416-1.464.24 0 .384.071 1.464 1.032.744.647.888.84.888 1.056s-.048.288-.72.84v1.248c0 1.824.12 3.337.12 4.009 0 .72-.888 1.224-1.728 1.224-.888 0-1.1-.216-1.1-1.008v-.552h-3.556v1.1c0 .744-.624 1.152-1.752 1.152-.864 0-1.032-.12-1.032-.936 0-.385.144-2.641.144-5.064 0-1.536 0-2.5-.072-3.673a8.536 8.536 0 0 1 2.952 1.032h.12v-4.772h-1.368a15 15 0 0 0 -2.424.168l-.216-.816a24.5 24.5 0 0 0 2.64.168h1.368v-1.68c0-1.08 0-1.752-.024-2.328-1.392.12-2.76.191-4.128.191-.144 0-.192-.239-.048-.264a29.347 29.347 0 0 0 7.441-2.952 4.173 4.173 0 0 0 .744-.528c2.568 1.849 2.88 2.232 2.88 2.641 0 .384-.336.408-1.56.312-.7.1-1.392.192-2.064.265a.216.216 0 0 1 .024.12c0 .239-.144.312-.552.527v3.7h.768c1.272-1.9 1.368-1.92 1.536-1.92.192 0 .288.072 1.128.96h1.56a63.6 63.6 0 0 0 -.192-6.889c3 .408 3.744.7 3.744 1.009 0 .359-.216.527-.792.863v5.017h2.664a57.553 57.553 0 0 0 -.192-6.864c2.952.36 3.96.647 3.96.96s-.216.552-.864.816zm-12.841 12.121v-5.425h-3.24a1.906 1.906 0 0 1 -.312.265v5.16zm7.275-11.641v5.017h2.664v-5.017zm2.664 11.665v-6.169h-2.664v6.169z"/><path d="m2.485 85.824a5.487 5.487 0 0 1 .84 3.145 1.868 1.868 0 0 1 -1.7 1.992 1.164 1.164 0 0 1 -1.325-1.176c0-.36.168-.648.792-1.248a3.494 3.494 0 0 0 1.1-2.713c.008-.143.221-.124.293 0zm6.192-15.841c.816-1.1.888-1.152 1.056-1.152.144 0 .264.024 1.176.769.744.624.864.743.864.96 0 .168-.048.239-.648.744v2.063c0 1.824.144 3.6.144 4.2 0 .792-.408 1.08-1.68 1.08-.528 0-.624-.169-.624-.769v-.288h-1.8v2.784h.792c1.224-1.488 1.344-1.608 1.512-1.608.216 0 .288.024 1.2.889.648.624.744.768.744.936s-.072.265-.24.265h-4.008v1.8c1.416-.144 2.736-.312 4.2-.5a.114.114 0 0 1 .072.216 68.466 68.466 0 0 1 -9.337 3.328c-.144.5-.312.648-.528.648-.36 0-.576-.384-1.248-3.312a15.269 15.269 0 0 0 1.56-.023c1.1-.048 2.064-.12 2.976-.168v-1.989h-1.06a18.336 18.336 0 0 0 -2.448.168l-.24-.84a21.215 21.215 0 0 0 2.688.191h1.061v-2.783h-1.7v.6c0 .7-.432.888-1.272.888-.792 0-.888-.1-.888-.7 0-.479.12-2.664.12-5.929 0-1.992 0-2.712-.072-3.5a7 7 0 0 1 2.5 1.032zm-5.521 2.04a2.687 2.687 0 0 1 1.92 2.064v-2.567c0-.312 0-.7-.024-1.057h-1.511a2.418 2.418 0 0 1 -.384.265zm0 5.089h1.92v-2.064a1.014 1.014 0 0 1 -.96.864c-.432 0-.648-.36-.648-.792 0-.312.072-.7.12-1.225a2.122 2.122 0 0 0 -.432-1.536zm3.044 11.593c0 1.1-.552 1.68-1.464 1.68a1 1 0 0 1 -.888-1.008c0-.312.048-.624.1-1.128a3.419 3.419 0 0 0 -.48-2.568c-.1-.12.072-.168.216-.12a3.379 3.379 0 0 1 2.516 3.144zm2.736-.312a1.248 1.248 0 0 1 -1.224 1.393c-.648 0-.984-.5-.984-1.177a4.323 4.323 0 0 0 -1.56-3.36c-.12-.1.048-.168.192-.144 2.688.576 3.577 1.919 3.577 3.288zm.024-17.93h-1.651c-.024.145-.12.217-.36.385v4.344c.192-.815.36-1.824.456-2.4.072-.407.1-.7.144-1.128a8.551 8.551 0 0 1 1.416.769zm0 6.649v-3.961c-.072.048-.168.12-.288.192-.48.72-.984 1.464-1.728 2.592v1.177zm2.616 10.536c0 .744-.36 1.465-1.248 1.465-.48 0-.936-.312-1.032-1.248a3.438 3.438 0 0 0 -2.16-2.977c-.12-.072-.048-.192.1-.192 3.237.073 4.341 1.584 4.341 2.952zm7.614-12.793c1.392-1.848 1.561-1.992 1.776-1.992.24 0 .48.168 1.416 1.1.768.768.888.912.888 1.1 0 .168-.12.265-.312.265h-5.064v5.616h.888c1.08-1.416 1.2-1.488 1.416-1.488.288 0 .528.145 1.416.912.936.816 1.08.937 1.08 1.176s-.12.36-.744.889v2.424c0 1.824.12 3.937.12 4.873 0 .72-.84 1.128-1.944 1.128-.84 0-.96-.12-.96-.912v-.816h-4.656v.87c0 .744-.408 1.152-1.776 1.152-.864 0-.936-.12-.936-.937 0-.384.12-2.952.12-6.624a35.479 35.479 0 0 0 -.1-3.721c2.041.6 2.736.84 2.977 1.08h.36v-7.511a39.6 39.6 0 0 0 -.168-4.681c3.384.24 3.744.553 3.744.912 0 .24-.168.408-.84.721v4.464zm-.024 13.8v-7.222h-4.366a1.07 1.07 0 0 1 -.288.264v6.961z"/><path d="m9.925 107.3c0 4.944.168 8.041.168 8.641 0 .744-.6 1.08-1.824 1.08-.888 0-1.056-.12-1.056-.936v-1.177h-3.192v2.3c0 .744-.6 1.08-1.68 1.08-.888 0-1.08-.1-1.08-.937 0-.647.192-5.064.192-7.992 0-3.7.024-5.425-.1-7.272 1.056.288 1.776.5 2.256.672.12-1.2.216-2.112.288-3.36.024-.433.024-.769.024-1.44 3.24.648 3.72.792 3.72 1.225 0 .239-.192.5-.936.72-.768 1.176-1.464 2.16-2.28 3.24h2.6c.984-1.2 1.08-1.272 1.272-1.272.264 0 .36.024 1.3.841.984.84 1.056.96 1.056 1.176s-.048.264-.72.792zm-5.4-3.672c-.048.119-.192.216-.5.384v4.7h3.188v-5.088zm2.688 10.8v-5.228h-3.192v5.232zm11.617-11.756c1.2-1.439 1.272-1.487 1.536-1.487.288 0 .408.048 1.728 1.128.7.576.768.672.768.936 0 .24-.1.336-.768.889.024 6.672-.144 10.537-.6 12.529a3.8 3.8 0 0 1 -4.152 3.288c-.5 0-.624-.12-.744-.576-.36-1.3-1.032-1.969-2.832-2.448-.144-.048-.144-.264 0-.264a31.185 31.185 0 0 0 3.457 0c.768-.049 1.272-.385 1.464-1.9a85.2 85.2 0 0 0 .456-11.617h-4.9a20.839 20.839 0 0 1 -3.816 4.513c-.12.1-.264-.072-.192-.192 1.008-1.536 2.064-5.137 2.616-8.3.1-.624.168-.984.216-1.632 3.816.96 4.008 1.176 4.008 1.536 0 .264-.192.432-1.008.672a24.518 24.518 0 0 1 -1.536 2.928zm-5.088 8.428c-.1-1.872-.336-3.1-1.392-3.984-.12-.1-.024-.239.12-.216 3.144.433 4.56 2.16 4.56 3.912a1.834 1.834 0 0 1 -1.872 2.064c-.84-.003-1.344-.531-1.416-1.776z"/><path d="m7.645 132.577c1.032-1.344 1.1-1.368 1.32-1.368.24 0 .336.024 1.44.889.84.647.888.743.888.983 0 .216-.048.288-.72.744a27.227 27.227 0 0 1 -2.016 8.353 3.732 3.732 0 0 1 2.16 2.952 1.507 1.507 0 0 1 -1.464 1.608c-.6 0-.984-.312-1.272-1.056a10.765 10.765 0 0 0 -.7-1.393c-1.608 2.137-3.888 3.456-7.129 4.44-.144.048-.216-.168-.1-.24a11.714 11.714 0 0 0 5.748-6.047 8.155 8.155 0 0 0 -1.44-1.057l-.24 1.057c-.144.6-.648.912-1.488.912-.937 0-1.224-.24-1.224-.624a1.868 1.868 0 0 1 .048-.336c.648-2.833 1.3-6.073 1.824-9.337h-.6a16.469 16.469 0 0 0 -2.352.168l-.24-.816a19.668 19.668 0 0 0 2.592.168h.7c.24-1.488.48-3 .672-4.464a10.3 10.3 0 0 0 .12-1.417c3.144.48 3.5.721 3.5 1.032 0 .288-.072.433-.864.7-.24 1.44-.48 2.809-.72 4.152zm-1.656.48c-.5 2.784-1.008 5.376-1.536 7.872a12.12 12.12 0 0 1 1.8.336 29.984 29.984 0 0 0 1.632-8.208zm13.057 4.32c1.561-2.16 1.632-2.208 1.873-2.208s.336.048 1.32 1.1 1.032 1.128 1.032 1.344a.215.215 0 0 1 -.24.24h-5.331v.7c0 4.152.12 6.553.12 7.32a2.451 2.451 0 0 1 -1.416 2.473 3.366 3.366 0 0 1 -1.7.5c-.456 0-.624-.192-.768-.648-.288-.936-1.008-1.728-2.688-2.328a.121.121 0 0 1 .024-.239 15.4 15.4 0 0 0 2.64-.1c.576-.1.888-.384.888-1.128v-6.553h-1.538c-.552 0-1.584.048-2.712.168l-.24-.815c1.176.12 2.256.168 2.952.168h1.538v-.5c0-2.041-.048-3.984-.12-5.449.864.168 1.56.313 2.064.433.576-1.225.96-2.16 1.368-3.265h-4.8a18.5 18.5 0 0 0 -2.448.168l-.24-.84a21.245 21.245 0 0 0 2.688.192h4.558c1.2-1.393 1.32-1.44 1.536-1.44.264 0 .384.023 1.824 1.176.96.769 1.056.912 1.056 1.177 0 .287-.072.359-1.32.672-1.056.744-2.136 1.512-3.457 2.352.936.288 1.056.48 1.056.673 0 .239-.144.479-.864.792v3.864z"/><path d="m15.062 158.3c1.368-1.608 1.464-1.68 1.68-1.68s.312.023 1.561.96c1.152.864 1.224.983 1.224 1.2 0 .239-.072.359-.792 1.031v5.113c0 7.368.144 9.648.144 10.177 0 .7-.552 1.151-2.208 1.151-1.056 0-1.248-.144-1.248-.888v-1.848h-7.8v1.784c0 .937-.624 1.248-1.968 1.248-1.008 0-1.224-.144-1.224-.888 0-.384.1-3.12.1-9.937 0-6.289 0-7.249-.1-8.665 2.688.6 3.433.937 3.625 1.248zm-7.44 7.057h7.8v-6.576h-7.369a1.438 1.438 0 0 1 -.432.359zm7.8 7.681v-7.2h-7.8v7.2z"/><path d="m17.606 194.881c1.92-2.4 2.088-2.52 2.3-2.52.264 0 .432.1 1.944 1.512.816.744 1.032 1.057 1.032 1.225s-.12.264-.312.264h-9.57c0 3.433.168 6.816.168 7.633a2.666 2.666 0 0 1 -1.392 2.64 4.758 4.758 0 0 1 -2.472.6c-.432 0-.624-.168-.792-.624-.384-1.1-1.1-1.824-3.024-2.425-.144-.048-.144-.264 0-.264a22.72 22.72 0 0 0 3.289-.048c.792-.1 1.056-.48 1.056-1.128v-6.385h-5.98c-.84 0-1.776.048-3.145.168l-.24-.816c1.584.12 2.544.168 3.385.168h5.976a28.448 28.448 0 0 0 -.168-4.44c1.176.12 2.041.24 2.665.337.888-1.32 1.8-2.785 2.664-4.272h-8.69c-.84 0-1.776.048-3.144.168l-.24-.816c1.584.12 2.544.168 3.384.168h8.473c1.392-1.488 1.488-1.536 1.8-1.536.336 0 .456.048 2.041 1.368 1.3 1.08 1.44 1.248 1.44 1.584 0 .36-.12.408-1.728.744-1.776.984-3.216 1.8-4.993 2.784.648.168.72.313.72.5 0 .265-.1.385-1.056.889v2.52z"/><path d="m20.126 218.688a3 3 0 1 1 3.024-3 2.947 2.947 0 0 1 -3.024 3zm0-5.185a2.184 2.184 0 1 0 2.185 2.185 2.162 2.162 0 0 0 -2.185-2.188z"/></g></svg>