<?xml version="1.0" encoding="UTF-8" standalone="no"?>
<!-- Created with Inkscape (http://www.inkscape.org/) -->

<svg
   xmlns:dc="http://purl.org/dc/elements/1.1/"
   xmlns:cc="http://creativecommons.org/ns#"
   xmlns:rdf="http://www.w3.org/1999/02/22-rdf-syntax-ns#"
   xmlns:svg="http://www.w3.org/2000/svg"
   xmlns="http://www.w3.org/2000/svg"
   xmlns:sodipodi="http://sodipodi.sourceforge.net/DTD/sodipodi-0.dtd"
   xmlns:inkscape="http://www.inkscape.org/namespaces/inkscape"
   width="1000"
   height="242.59897"
   id="svg2"
   version="1.1"
   inkscape:version="0.48.2 r9819"
   sodipodi:docname="New document 1">
  <defs
     id="defs4" />
  <sodipodi:namedview
     id="base"
     pagecolor="#ffffff"
     bordercolor="#666666"
     borderopacity="1.0"
     inkscape:pageopacity="0.0"
     inkscape:pageshadow="2"
     inkscape:zoom="1"
     inkscape:cx="624.60355"
     inkscape:cy="-47.969136"
     inkscape:document-units="px"
     inkscape:current-layer="layer1"
     showgrid="false"
     fit-margin-top="0.5"
     fit-margin-left="0.5"
     fit-margin-right="0.5"
     fit-margin-bottom="0.5"
     inkscape:window-width="1920"
     inkscape:window-height="1028"
     inkscape:window-x="-8"
     inkscape:window-y="-8"
     inkscape:window-maximized="1">
    <inkscape:grid
       type="xygrid"
       id="grid2996"
       empspacing="5"
       visible="true"
       enabled="true"
       snapvisiblegridlinesonly="true" />
  </sodipodi:namedview>
  <metadata
     id="metadata7">
    <rdf:RDF>
      <cc:Work
         rdf:about="">
        <dc:format>image/svg+xml</dc:format>
        <dc:type
           rdf:resource="http://purl.org/dc/dcmitype/StillImage" />
        <dc:title></dc:title>
      </cc:Work>
    </rdf:RDF>
  </metadata>
  <g
     inkscape:label="Layer 1"
     inkscape:groupmode="layer"
     id="layer1"
     transform="translate(115.8125,-255.26321)">
    <g
       id="g3018"
       transform="matrix(1.2509979,0,0,1.2509979,28.943194,-124.83686)">
      <path
         sodipodi:nodetypes="cccccccccc"
         inkscape:connector-curvature="0"
         id="path2998"
         d="m -10,497.36218 -31,0 0,-71.5625 -74.3125,-100.4375 32.3125,0 64.375,87.1875 63.9375,-87.1875 17.125,0 L -10,423.92468 z"
         style="fill:#8da291;fill-opacity:1;stroke:none" />
      <path
         id="path3000"
         d="m 71.4375,349.375 -64.8125,127 12.0625,0 20.3125,-41 58.375,0 19.625,41 23.9375,0 -63.1875,-127 -6.3125,0 z m -2.875,27.9375 24.3125,50.0625 -49.4375,0 25.125,-50.0625 z"
         style="fill:#8da291;fill-opacity:1;stroke:none"
         inkscape:connector-curvature="0" />
      <path
         inkscape:connector-curvature="0"
         id="path3002"
         d="m 151,488.36218 0,-145 27,0 0,66 78,0 0,-66 27,0 0,145 -27,0 0,-70 -78,0 0,70 z"
         style="fill:#8da291;fill-opacity:1;stroke:none" />
      <path
         id="path3004"
         d="m 537.75,338.25 c -52.10864,1.13676 -85.875,37.8501 -85.875,77.5 0,51.4466 50.09565,77.75 88.375,77.75 39.18782,0 87.75,-26.12785 87.75,-77.125 0,-53.89801 -47.50673,-78.125 -87.75,-78.125 -0.8363,0 -1.67288,-0.018 -2.5,0 z m 2.25,7.125 c 33.55048,0 56.75,25.64252 56.75,70.125 0,51.89402 -29.51176,69.75 -56.5,69.75 -36.43588,0 -57.375,-27.12157 -57.375,-70.5 0,-40.14216 21.02985,-69.375 57.125,-69.375 z m -171.875,9.875 c -40.3282,0 -74.25,27.98039 -74.25,65.125 0,40.98824 39.21894,66.125 74.25,66.125 42.2585,0 73.875,-29.99388 73.875,-64.875 0,-54.67418 -53.00471,-66.375 -73.875,-66.375 z M 368,361.5 c 23.55718,0 48,15.31249 48,59 0,41.6534 -22.60528,58.75 -47.75,58.75 -27.17474,0 -47.25,-16.97769 -47.25,-58.875 0,-46.5955 27.21907,-58.875 47,-58.875 z"
         style="fill:#8da291;fill-opacity:1;stroke:none"
         inkscape:connector-curvature="0" />
      <path
         sodipodi:nodetypes="cccccccccc"
         inkscape:connector-curvature="0"
         id="path3014"
         d="m 639.29589,461.32849 -1.17089,22.90869 22,2.125 3.0427,-23.96333 z m 26.41792,-18.98195 17.53619,-138.10936 -36.5,11.25 -6.43223,125.84802 z"
         style="fill:#8da291;fill-opacity:1;stroke:none" />
    </g>
  </g>
</svg>
